<?xml version="1.0" encoding="UTF-8"?><svg xmlns="http://www.w3.org/2000/svg" xmlns:xlink="http://www.w3.org/1999/xlink" height="242.6" preserveAspectRatio="xMidYMid meet" version="1.1" viewBox="76.5 91.1 272.2 242.6" width="272.2" zoomAndPan="magnify">
 <g id="surface1">
  <g id="change1_1"><path d="m127.52 223.1h-28.387v-26.47h28.387v26.47" fill="#e1b92f"/></g>
  <g id="change2_1"><path d="m127.52 223.1v-2.48h-25.91v-21.51h23.42v23.99h2.49v-2.48 2.48h2.48v-26.47c0-0.65-0.27-1.29-0.73-1.76-0.47-0.46-1.1-0.72-1.75-0.72h-28.387c-0.656 0-1.293 0.26-1.758 0.72-0.461 0.47-0.727 1.1-0.727 1.76v26.47c0 0.65 0.266 1.29 0.727 1.76 0.465 0.46 1.102 0.72 1.758 0.72h28.387c0.65 0 1.28-0.26 1.75-0.72 0.46-0.47 0.73-1.11 0.73-1.76h-2.48" fill="#040505"/></g>
  <g id="change1_2"><path d="m326.07 223.1h-28.38v-26.47h28.38v26.47" fill="#e1b92f"/></g>
  <g id="change2_2"><path d="m326.07 223.1v-2.48h-25.9v-21.51h23.42v23.99h2.48v-2.48 2.48h2.48v-26.47c0-0.65-0.26-1.29-0.73-1.76-0.46-0.46-1.1-0.72-1.75-0.72h-28.38c-0.65 0-1.3 0.26-1.76 0.72-0.46 0.47-0.72 1.1-0.72 1.76v26.47c0 0.65 0.26 1.29 0.72 1.76 0.46 0.46 1.11 0.72 1.76 0.72h28.38c0.65 0 1.29-0.26 1.75-0.72 0.47-0.47 0.73-1.11 0.73-1.76h-2.48" fill="#040505"/></g>
  <g id="change1_3"><path d="m79 301.01h54.53v-82.41h-54.53z" fill="#e1b92f"/></g>
  <g id="change2_3"><path d="m133.53 301.01v-2.48h-52.05v-77.45h49.57v79.93h2.48v-2.48 2.48h2.48v-82.41c0-0.65-0.27-1.3-0.73-1.76s-1.1-0.72-1.75-0.72h-54.53c-0.652 0-1.293 0.26-1.754 0.72-0.465 0.46-0.726 1.11-0.726 1.76v82.41c0 0.65 0.261 1.29 0.726 1.76 0.461 0.46 1.102 0.72 1.754 0.72h54.53c0.65 0 1.29-0.26 1.75-0.72 0.46-0.47 0.73-1.11 0.73-1.76h-2.48" fill="#040505"/></g>
  <g id="change1_4"><path d="m291.67 301.01h54.53v-82.41h-54.53z" fill="#e1b92f"/></g>
  <g id="change2_4"><path d="m346.2 301.01v-2.48h-52.05v-77.45h49.57v79.93h2.48v-2.48 2.48h2.48v-82.41c0-0.65-0.26-1.3-0.72-1.76-0.47-0.46-1.1-0.72-1.76-0.72h-54.53c-0.65 0-1.29 0.26-1.75 0.72-0.47 0.46-0.73 1.11-0.73 1.76v82.41c0 0.65 0.26 1.29 0.73 1.76 0.46 0.46 1.1 0.72 1.75 0.72h54.53c0.66 0 1.29-0.26 1.76-0.72 0.46-0.47 0.72-1.11 0.72-1.76h-2.48" fill="#040505"/></g>
  <g id="change2_5"><path d="m115.8 218.6v-98.42c0-1.37-1.1-2.48-2.48-2.48-1.37 0-2.48 1.11-2.48 2.48v98.42c0 1.37 1.11 2.48 2.48 2.48 1.38 0 2.48-1.11 2.48-2.48" fill="#040505"/></g>
  <g id="change1_5"><path d="m132.61 112.86c0 10.66-8.63 19.29-19.29 19.29-10.64 0-19.281-8.63-19.281-19.29 0-10.65 8.641-19.278 19.281-19.278 10.66 0 19.29 8.628 19.29 19.278" fill="#e1b92f"/></g>
  <g id="change2_6"><path d="m132.61 112.86h-2.49c0 4.66-1.87 8.84-4.92 11.89-3.04 3.04-7.23 4.92-11.88 4.92-4.64 0-8.83-1.88-11.88-4.92-3.042-3.05-4.917-7.23-4.92-11.89 0.003-4.64 1.878-8.83 4.92-11.88 3.05-3.042 7.24-4.918 11.88-4.918 4.65 0 8.84 1.876 11.88 4.918 3.05 3.05 4.92 7.24 4.92 11.88h4.97c0-12.02-9.74-21.758-21.77-21.758-12.02 0-21.761 9.738-21.761 21.758 0 12.03 9.741 21.77 21.761 21.77 12.03 0 21.77-9.74 21.77-21.77h-2.48" fill="#040505"/></g>
  <g id="change2_7"><path d="m314.36 218.6v-98.42c0-1.37-1.11-2.48-2.48-2.48s-2.48 1.11-2.48 2.48v98.42c0 1.37 1.11 2.48 2.48 2.48s2.48-1.11 2.48-2.48" fill="#040505"/></g>
  <g id="change1_6"><path d="m331.16 112.86c0 10.66-8.63 19.29-19.28 19.29s-19.29-8.63-19.29-19.29c0-10.65 8.64-19.278 19.29-19.278s19.28 8.628 19.28 19.278" fill="#e1b92f"/></g>
  <g id="change2_8"><path d="m331.16 112.86h-2.48c0 4.66-1.88 8.84-4.92 11.89-3.05 3.04-7.23 4.92-11.88 4.92s-8.83-1.88-11.88-4.92c-3.05-3.05-4.93-7.23-4.93-11.89 0-4.64 1.88-8.83 4.93-11.88 3.05-3.042 7.23-4.918 11.88-4.918s8.83 1.876 11.88 4.918c3.04 3.05 4.92 7.24 4.92 11.88h4.96c0-12.02-9.74-21.758-21.76-21.758s-21.77 9.738-21.77 21.758c0 12.03 9.75 21.77 21.77 21.77s21.76-9.74 21.76-21.77h-2.48" fill="#040505"/></g>
  <g id="change3_1"><path d="m323.07 252.49c0 43.7-49.46 79.13-110.47 79.13s-110.47-35.43-110.47-79.13 49.46-79.13 110.47-79.13 110.47 35.43 110.47 79.13" fill="#64cbd6"/></g>
  <g id="change2_9"><path d="m323.07 252.49h-2.07c0 10.53-2.97 20.56-8.39 29.75-8.13 13.77-21.82 25.62-39.15 34-17.33 8.39-38.28 13.31-60.86 13.31-30.1 0-57.32-8.75-76.91-22.79-9.79-7.01-17.67-15.34-23.1-24.52-5.42-9.19-8.39-19.22-8.39-29.75s2.97-20.56 8.39-29.75c8.13-13.77 21.82-25.62 39.15-34.01 17.33-8.38 38.28-13.3 60.86-13.3 30.1-0.01 57.32 8.75 76.91 22.79 9.79 7.01 17.67 15.34 23.1 24.52 5.42 9.19 8.39 19.22 8.39 29.75h4.13c0.01-11.32-3.2-22.1-8.97-31.85-8.64-14.63-22.97-26.95-40.9-35.63-17.93-8.67-39.48-13.72-62.66-13.72-30.9 0.01-58.92 8.96-79.31 23.57-10.2 7.3-18.5 16.03-24.25 25.78-5.77 9.75-8.98 20.53-8.97 31.85-0.01 11.32 3.2 22.1 8.97 31.85 8.64 14.63 22.97 26.95 40.9 35.62 17.93 8.68 39.48 13.72 62.66 13.73 30.9-0.01 58.92-8.96 79.31-23.57 10.2-7.3 18.5-16.03 24.25-25.78 5.77-9.75 8.98-20.53 8.97-31.85h-2.06" fill="#040505"/></g>
  <g id="change4_1"><path d="m212.6 312.98c-46.64 0-84.45-27.08-84.45-60.49s37.81-60.49 84.45-60.49 84.45 27.08 84.45 60.49-37.81 60.49-84.45 60.49" fill="#4a959f"/></g>
  <g id="change1_7"><path d="m185.14 237.88c0 14.26-11.55 25.81-25.8 25.81s-25.81-11.55-25.81-25.81c0-14.25 11.56-25.81 25.81-25.81s25.8 11.56 25.8 25.81" fill="#e1b92f"/></g>
  <g id="change2_10"><path d="m185.14 237.88h-2.21c0 6.52-2.64 12.41-6.91 16.68-4.28 4.28-10.16 6.91-16.68 6.91s-12.41-2.63-16.69-6.91c-4.27-4.27-6.9-10.16-6.91-16.68 0.01-6.52 2.64-12.4 6.91-16.68 4.28-4.27 10.17-6.91 16.69-6.91s12.4 2.64 16.68 6.91c4.27 4.28 6.91 10.16 6.91 16.68h4.43c0-15.48-12.55-28.02-28.02-28.02-15.48 0-28.03 12.54-28.03 28.02s12.55 28.03 28.03 28.03 28.02-12.55 28.02-28.03h-2.22" fill="#040505"/></g>
  <g id="change5_1"><path d="m174.12 237.88c0 8.17-6.62 14.78-14.78 14.78-8.17 0-14.79-6.61-14.79-14.78 0-8.16 6.62-14.78 14.79-14.78 8.16 0 14.78 6.62 14.78 14.78" fill="#fff"/></g>
  <g id="change2_11"><path d="m174.12 237.88h-2.22c0 3.48-1.4 6.6-3.68 8.89-2.28 2.27-5.41 3.68-8.88 3.68-3.48 0-6.61-1.41-8.89-3.68-2.28-2.28-3.68-5.41-3.68-8.89 0-3.47 1.4-6.6 3.68-8.88s5.41-3.68 8.89-3.68c3.47 0 6.6 1.4 8.88 3.68s3.68 5.41 3.68 8.88h4.43c0-9.39-7.61-16.99-16.99-16.99-9.39 0-17 7.6-17 16.99s7.61 17 17 17c9.38 0 16.99-7.61 16.99-17h-2.21" fill="#040505"/></g>
  <g id="change1_8"><path d="m240.06 237.88c0 14.26 11.55 25.81 25.8 25.81 14.26 0 25.81-11.55 25.81-25.81 0-14.25-11.55-25.81-25.81-25.81-14.25 0-25.8 11.56-25.8 25.81" fill="#e1b92f"/></g>
  <g id="change2_12"><path d="m240.06 237.88h-2.22c0 15.48 12.55 28.03 28.02 28.03 15.48 0 28.03-12.55 28.03-28.03s-12.55-28.02-28.03-28.02c-15.47 0-28.02 12.54-28.02 28.02h4.43c0.01-6.52 2.64-12.4 6.91-16.68 4.28-4.27 10.16-6.91 16.68-6.91 6.53 0 12.41 2.64 16.69 6.91 4.27 4.28 6.9 10.16 6.9 16.68s-2.63 12.41-6.9 16.68c-4.28 4.28-10.16 6.91-16.69 6.91-6.52 0-12.4-2.63-16.68-6.91-4.27-4.27-6.9-10.16-6.91-16.68h-2.21" fill="#040505"/></g>
  <g id="change5_2"><path d="m251.09 237.88c0 8.17 6.61 14.78 14.77 14.78 8.17 0 14.78-6.61 14.78-14.78 0-8.16-6.61-14.78-14.78-14.78-8.16 0-14.77 6.62-14.77 14.78" fill="#fff"/></g>
  <g id="change2_13"><path d="m251.09 237.88h-2.22c0 9.39 7.61 17 16.99 17 9.4 0 17-7.61 17-17s-7.6-16.99-17-16.99c-9.38 0-16.99 7.6-16.99 16.99h4.43c0-3.47 1.4-6.6 3.68-8.88s5.41-3.68 8.88-3.68c3.48 0 6.61 1.4 8.89 3.68s3.68 5.41 3.68 8.88c0 3.48-1.4 6.61-3.68 8.89-2.28 2.27-5.41 3.68-8.89 3.68-3.47 0-6.6-1.41-8.88-3.68-2.28-2.29-3.68-5.41-3.68-8.89h-2.21" fill="#040505"/></g>
  <g id="change2_14"><path d="m229.71 291.21c0 4.74-1.91 9-5.01 12.1-3.11 3.1-7.37 5.01-12.1 5.01s-8.99-1.91-12.1-5.01c-3.1-3.1-5.01-7.36-5.01-12.1 0-1.37-1.11-2.48-2.48-2.48s-2.48 1.11-2.48 2.48c0 12.2 9.88 22.08 22.07 22.08s22.07-9.88 22.07-22.08c0-1.37-1.11-2.48-2.48-2.48s-2.48 1.11-2.48 2.48" fill="#040505"/></g>
  <g id="change5_3"><path d="m117.5 252.49c0.01-9.18 2.59-17.92 7.33-25.94 7.1-12.03 19.08-22.42 34.29-29.78s33.63-11.69 53.48-11.69c26.47-0.01 50.38 7.7 67.55 20.01 8.59 6.15 15.49 13.44 20.22 21.46 4.74 8.02 7.32 16.76 7.32 25.94 0 1.38 1.12 2.5 2.5 2.5s2.5-1.12 2.5-2.5c0.01-10.13-2.87-19.78-8.01-28.48-7.72-13.06-20.49-24.03-36.43-31.74s-35.07-12.19-55.65-12.19c-27.44 0.01-52.31 7.95-70.46 20.94-9.08 6.5-16.48 14.28-21.62 22.99-5.14 8.7-8.02 18.35-8.01 28.48 0 1.38 1.11 2.5 2.5 2.5 1.38 0 2.5-1.12 2.5-2.5" fill="#fff"/></g>
 </g>
</svg>